<svg id="Lager_1" data-name="Lager 1" xmlns="http://www.w3.org/2000/svg" viewBox="0 0 160.94 225.55"><defs><style>.cls-1{fill:#9ac768;}.cls-2{fill:#699f38;}.cls-3{fill:#1d1d1b;}</style></defs><title>logo2</title><path class="cls-1" d="M240.29,223.63V79.15h61V223.63Z" transform="translate(-169.02 -55.09)"/><path class="cls-2" d="M194.23,55.09h61.09V67h-27v71.54l-6.08-3.15q-13.59-7.1-27.18-14.17a1.33,1.33,0,0,1-.85-1.37q0-32,0-64.08C194.2,55.62,194.22,55.42,194.23,55.09Z" transform="translate(-169.02 -55.09)"/><path class="cls-2" d="M194.26,134.41l8.6,4.47q12.31,6.44,24.61,12.89a1.57,1.57,0,0,1,.74,1.12q0,23.15,0,46.3a3.41,3.41,0,0,1-.06.44H194.26Z" transform="translate(-169.02 -55.09)"/><path class="cls-3" d="M191.61,280.64h-1.17V264.92H170.19v15.72H169v-31.7h1.17v14.81h20.25V248.94h1.17Z" transform="translate(-169.02 -55.09)"/><path class="cls-3" d="M217.53,267.53l11.1-18.59h1.44L218.12,268.6v12h-1.18v-12L205,248.94h1.57Z" transform="translate(-169.02 -55.09)"/><path class="cls-3" d="M245.36,279.46h16.26v1.18H244.16v-31.7h1.2Z" transform="translate(-169.02 -55.09)"/><path class="cls-3" d="M277.29,279.46h16.26v1.18H276.09v-31.7h1.2Z" transform="translate(-169.02 -55.09)"/><path class="cls-3" d="M325.12,271.17H309.6l-3.52,9.47h-1.29l11.87-31.7h1.43L330,280.64h-1.29ZM310,270h14.65l-7.32-19.63Z" transform="translate(-169.02 -55.09)"/></svg>